<svg width="18" height="18" viewBox="0 0 18 18" fill="none" xmlns="http://www.w3.org/2000/svg">
<path fill-rule="evenodd" clip-rule="evenodd" d="M9.00033 17.3337C13.6027 17.3337 17.3337 13.6027 17.3337 9.00033C17.3337 4.39795 13.6027 0.666992 9.00033 0.666992C4.39795 0.666992 0.666992 4.39795 0.666992 9.00033C0.666992 13.6027 4.39795 17.3337 9.00033 17.3337ZM14.2668 13.0884C15.1444 11.9595 15.667 10.541 15.667 9.00033C15.667 5.60064 13.1223 2.79532 9.83366 2.38524V5.77201C11.2713 6.14204 12.3337 7.44713 12.3337 9.00033C12.3337 9.61853 12.1654 10.1974 11.8721 10.6937L14.2668 13.0884ZM13.0883 14.2669L10.6936 11.8722C10.1973 12.1654 9.61847 12.3337 9.00033 12.3337C8.38218 12.3337 7.80334 12.1654 7.3071 11.8722L4.91236 14.2669C6.04125 15.1444 7.45976 15.667 9.00033 15.667C10.5409 15.667 11.9594 15.1444 13.0883 14.2669ZM5.66699 9.00033C5.66699 9.61853 5.83528 10.1974 6.12855 10.6937L3.73383 13.0884C2.85625 11.9595 2.33366 10.541 2.33366 9.00033C2.33366 5.60064 4.8784 2.79532 8.16699 2.38524V5.77201C6.7293 6.14204 5.66699 7.44713 5.66699 9.00033ZM9.00033 10.667C9.9208 10.667 10.667 9.9208 10.667 9.00033C10.667 8.07985 9.9208 7.33366 9.00033 7.33366C8.07985 7.33366 7.33366 8.07985 7.33366 9.00033C7.33366 9.9208 8.07985 10.667 9.00033 10.667Z" fill="#72767C"/>
</svg>
