<svg width="18" height="13" viewBox="0 0 18 13" fill="none" xmlns="http://www.w3.org/2000/svg">
<path fill-rule="evenodd" clip-rule="evenodd" d="M0.754176 1.12685C0.96 0.715205 1.46056 0.548351 1.87221 0.754176L2.70847 1.1723C3.48285 1.5595 4.00178 2.3198 4.08016 3.18203L4.12003 3.62059C4.13954 3.8352 4.31949 3.99953 4.53499 3.99953H15.5291C16.9837 3.99953 17.9905 5.45239 17.4798 6.81437L16.0187 10.7107C15.6528 11.6864 14.72 12.3329 13.6779 12.3329H5.52156C4.22855 12.3329 3.14889 11.3469 3.03182 10.0592L2.42034 3.33293C2.39421 3.04551 2.22124 2.79208 1.96311 2.66302L1.12685 2.24489C0.715205 2.03906 0.548351 1.5385 0.754176 1.12685ZM4.76226 5.6662C4.51725 5.6662 4.32512 5.87658 4.34731 6.12059L4.69164 9.90831C4.73067 10.3375 5.09055 10.6662 5.52156 10.6662H13.6779C14.0252 10.6662 14.3362 10.4507 14.4581 10.1255L15.9193 6.22917C16.0214 5.95677 15.82 5.6662 15.5291 5.6662H4.76226Z" fill="#72767C"/>
</svg>
