<svg width="18" height="16" viewBox="0 0 18 16" fill="none" xmlns="http://www.w3.org/2000/svg">
<path d="M16.3103 5.63L15.1703 2.20917C15.005 1.71124 14.6869 1.27808 14.2613 0.971257C13.8356 0.66443 13.3242 0.499535 12.7995 0.500001H5.20116C4.67648 0.499535 4.165 0.66443 3.7394 0.971257C3.31379 1.27808 2.9957 1.71124 2.83033 2.20917L1.69033 5.63C1.3875 5.75707 1.12889 5.97063 0.946863 6.24397C0.764836 6.51731 0.667483 6.83827 0.666992 7.16667V11.3333C0.666992 11.9608 1.01949 12.5017 1.53283 12.7858C1.52199 12.8408 1.50033 12.8908 1.50033 12.9483V14.6667C1.50033 14.8877 1.58812 15.0996 1.7444 15.2559C1.90068 15.4122 2.11265 15.5 2.33366 15.5H3.16699C3.38801 15.5 3.59997 15.4122 3.75625 15.2559C3.91253 15.0996 4.00033 14.8877 4.00033 14.6667V13H14.0003V14.6667C14.0003 14.8877 14.0881 15.0996 14.2444 15.2559C14.4007 15.4122 14.6126 15.5 14.8337 15.5H15.667C15.888 15.5 16.1 15.4122 16.2562 15.2559C16.4125 15.0996 16.5003 14.8877 16.5003 14.6667V12.9483C16.5003 12.8908 16.4787 12.84 16.4678 12.7858C16.729 12.6434 16.9471 12.4335 17.0994 12.178C17.2517 11.9225 17.3326 11.6308 17.3337 11.3333V7.16667C17.3337 6.47583 16.9103 5.8825 16.3103 5.63ZM2.33366 11.3333V7.16667H15.667L15.6687 11.3333H2.33366ZM5.20116 2.16667H12.7987C13.1578 2.16667 13.4762 2.395 13.5895 2.73667L14.5112 5.5H3.48949L4.41033 2.73667C4.46562 2.57066 4.57176 2.42627 4.7137 2.32397C4.85564 2.22166 5.02619 2.16663 5.20116 2.16667Z" fill="#72767C"/>
</svg>
